<svg width="29" height="30" viewBox="0 0 29 30" fill="none" xmlns="http://www.w3.org/2000/svg">
<g clip-path="url(#clip0_386_555)">
<path d="M26.8533 1H2.14102C0.957227 1 0 1.9668 0 3.16211V28.832C0 30.0273 0.957227 31 2.14102 31H26.8533C28.0371 31 29 30.0273 29 28.8379V3.16211C29 1.9668 28.0371 1 26.8533 1ZM8.60371 26.5645H4.29902V12.2441H8.60371V26.5645ZM6.45137 10.293C5.06934 10.293 3.95352 9.13867 3.95352 7.71484C3.95352 6.29102 5.06934 5.13672 6.45137 5.13672C7.82773 5.13672 8.94355 6.29102 8.94355 7.71484C8.94355 9.13281 7.82773 10.293 6.45137 10.293ZM24.7123 26.5645H20.4133V19.6035C20.4133 17.9453 20.385 15.8066 18.176 15.8066C15.9387 15.8066 15.5988 17.6172 15.5988 19.4863V26.5645H11.3055V12.2441H15.4289V14.2012H15.4855C16.0576 13.0762 17.4623 11.8867 19.5523 11.8867C23.908 11.8867 24.7123 14.8516 24.7123 18.707V26.5645Z" fill="white"/>
</g>
<defs>
<clipPath id="clip0_386_555">
<rect width="29" height="30" fill="white"/>
</clipPath>
</defs>
</svg>
