<svg width="27" height="39" viewBox="0 0 27 39" fill="none" xmlns="http://www.w3.org/2000/svg">
<path d="M13.5 0C13.5 0 0 15.7164 0 25.0299C0 32.76 6.0525 39 13.5 39C17.0804 39 20.5142 37.5281 23.0459 34.9082C25.5777 32.2883 27 28.735 27 25.0299C27 15.7164 13.5 0 13.5 0ZM19.0575 15.6466L21.4425 18.1146L7.9425 32.0848L5.5575 29.6167M8.4375 15.7164C9.18342 15.7164 9.89879 16.0231 10.4262 16.5689C10.9537 17.1147 11.25 17.855 11.25 18.6269C11.25 19.3988 10.9537 20.139 10.4262 20.6849C9.89879 21.2307 9.18342 21.5373 8.4375 21.5373C7.69158 21.5373 6.97621 21.2307 6.44876 20.6849C5.92132 20.139 5.625 19.3988 5.625 18.6269C5.625 17.855 5.92132 17.1147 6.44876 16.5689C6.97621 16.0231 7.69158 15.7164 8.4375 15.7164ZM18.5625 26.194C19.3084 26.194 20.0238 26.5007 20.5512 27.0465C21.0787 27.5923 21.375 28.3326 21.375 29.1045C21.375 29.8764 21.0787 30.6167 20.5512 31.1625C20.0238 31.7083 19.3084 32.0149 18.5625 32.0149C17.8166 32.0149 17.1012 31.7083 16.5738 31.1625C16.0463 30.6167 15.75 29.8764 15.75 29.1045C15.75 28.3326 16.0463 27.5923 16.5738 27.0465C17.1012 26.5007 17.8166 26.194 18.5625 26.194Z" fill="#0A7C7F"/>
</svg>
