<svg width="26" height="29" viewBox="0 0 26 29" fill="none" xmlns="http://www.w3.org/2000/svg">
<path d="M25.9233 1.89181C25.8144 1.52907 25.6317 1.19431 25.3873 0.909731C25.143 0.625154 24.8425 0.397276 24.5059 0.241225C24.1711 0.0802109 23.8052 -0.00111299 23.4356 0.00330322H2.6228C2.25337 -0.017389 1.88494 0.0593941 1.55251 0.226355C1.209 0.385001 0.90305 0.618376 0.655776 0.91038C0.411777 1.19485 0.229366 1.52938 0.120631 1.89181C0.00854159 2.2516 -0.0260064 2.63216 0.0193876 3.00706L2.39138 23.8252C2.55048 25.2498 3.2158 26.5613 4.25716 27.513C5.2751 28.4635 6.59914 28.9932 7.97425 29H18.0986C19.4782 28.9941 20.8071 28.4645 21.8302 27.513C22.8579 26.5521 23.515 25.2431 23.6815 23.8252L24.9687 12.1224V11.944L25.9667 3.02193C26.0227 2.64584 26.008 2.26219 25.9233 1.89181ZM11.3153 24.7174H9.86896C8.93205 24.6638 8.04018 24.2866 7.33786 23.6468C6.63804 22.9984 6.1781 22.1209 6.03616 21.1635L5.68904 18.6058C5.64448 18.2159 5.75018 17.8236 5.98349 17.5128C6.2168 17.2021 6.55918 16.9976 6.93732 16.9432C7.31546 16.8887 7.6993 16.9887 8.00665 17.2216C8.31399 17.4546 8.52042 17.802 8.58171 18.1894L8.92884 20.7174C8.96891 20.9932 9.10201 21.2459 9.30488 21.4311C9.50698 21.6218 9.76841 21.7325 10.0425 21.7434H11.4889C11.8724 21.7434 12.2403 21.9001 12.5116 22.1789C12.7828 22.4578 12.9352 22.836 12.9352 23.2304C12.9352 23.6248 12.7828 24.003 12.5116 24.2819C12.2403 24.5607 11.8724 24.7174 11.4889 24.7174H11.3153ZM22.886 10.9923C19.8342 11.602 17.2308 11.7209 14.4683 9.5053C11.0405 6.72459 6.8895 7.61679 2.8976 9.07406L2.17443 2.76914C2.16069 2.70548 2.16069 2.63949 2.17443 2.57583C2.19412 2.51335 2.22896 2.45706 2.27568 2.41226C2.3099 2.35738 2.36072 2.31558 2.42031 2.2933C2.4768 2.27503 2.53738 2.27503 2.59387 2.2933H23.5947C23.6488 2.32471 23.6977 2.36488 23.7393 2.41226C23.7827 2.45885 23.8117 2.51338 23.8261 2.57583C23.8482 2.64337 23.8482 2.71647 23.8261 2.78401L22.886 10.9923Z" fill="#068079"/>
</svg>
